<svg id="Capa_1" xmlns="http://www.w3.org/2000/svg" viewBox="0 0 300 300"><style>.st2{fill:#6abd45}.st4{fill:#0075b1}.st6{fill:#079eda}</style><path d="M201.4 182.1l-49.3 28.5c-1.3.8-3 .8-4.3 0l-49.3-28.5c-1.3-.8-2.1-2.1-2.1-3.7v-56.9c0-1.5.9-2.9 2.1-3.7l49.3-28.5c1.3-.8 3-.8 4.3 0l49.3 28.5c1.3.8 2.1 2.1 2.1 3.7v56.9c.1 1.6-.8 2.9-2.1 3.7z" fill="#fff"/><path d="M96.5 179.5c0 .9.4 1.7 1.2 2.1l51.1 29.5c.3.3.8.3 1.2.3v.1c.4 0 .8-.1 1.2-.3l51.1-29.5c.8-.4 1.2-1.3 1.2-2.1v-59.1c0-.9-.4-1.7-1.2-2.1l-51.1-29.5c-.8-.4-1.7-.4-2.5 0l-51.1 29.5c-.2.1-.3.2-.5.4-.4.5-.7 1.1-.7 1.7v59z" fill="none"/><path d="M259.6 83.9L152.4 22c-.8-.4-1.6-.6-2.4-.6v67.1c-.4 0-.9.1-1.2.3l-51.1 29.5c-.2.1-.4.3-.5.4.1-.1.3-.3.5-.4l51.1-29.5c.8-.4 1.7-.4 2.5 0l51.1 29.5c.8.4 1.2 1.3 1.2 2.1v59.1c0 .9-.4 1.7-1.2 2.1l-51.1 29.5c-.4.2-.8.3-1.2.3v67.2c-.9 0-1.7-.3-2.5-.7 1.5.9 3.3.9 4.9.1l107.2-62c1.5-.9 2.4-2.5 2.5-4.2V88.1c-.1-1.7-1-3.3-2.6-4.2z"/><path class="st2" d="M150 21.4c-.9 0-1.7.2-2.5.6.9-.4 1.7-.7 2.5-.6zM96.4 120.5v59.1c0 .9.4 1.7 1.2 2.1l51.1 29.5c.4.2.8.3 1.3.3v-.1c-.4 0-.9-.1-1.2-.3l-51.1-29.5c-.8-.4-1.2-1.3-1.2-2.1l-.1-59c.1-.7.3-1.3.7-1.8-.4.5-.7 1.1-.7 1.8z"/><path d="M140 37.9v44.5l-47.3 27.3c-1 .6-1.9 1.3-2.8 2.2-2.3 2.3-3.5 5.5-3.5 8.7v59.1c0 4.5 2.4 8.6 6.2 10.8l47.4 27.3v44.4L47.9 209V91.1L140 37.9m10-16.5c-.8 0-1.7.2-2.4.6L40.4 83.9c-1.5.9-2.4 2.5-2.5 4.2v123.8c0 1.7.9 3.3 2.5 4.2l107.2 62c.8.4 1.5.7 2.5.7v-67.2c-.4 0-.9-.1-1.2-.3l-51.1-29.5c-.8-.4-1.2-1.3-1.2-2.1v-59.1c0-.7.3-1.3.7-1.8.2-.2.3-.3.5-.4l51.1-29.5c.3-.3.8-.3 1.2-.3l-.1-67.2z"/><path d="M181.6 169.8l-30.3 17.6c-.8.4-1.8.4-2.6 0l-30.3-17.6c-.8-.4-1.3-1.3-1.3-2.2v-35c0-.9.5-1.8 1.3-2.2l30.3-17.5c.8-.4 1.8-.4 2.6 0l30.3 17.6c.8.4 1.3 1.3 1.3 2.2v35c-.1.7-.5 1.5-1.3 2.1z" opacity=".8"/><path d="M150.4 112.4c.1 0 .2.1.3.1-.1-.1-.2-.1-.3-.1zM150 187.8zM150.3 112.3zM182.7 131.2c0-.1 0-.1 0 0 0-.1 0-.1 0 0zM150 187.8c.2 0 .5-.1.7-.2l31.4-18.2c.4-.3.8-.8.8-1.3v-36.3c0-.3-.1-.5-.3-.8L150 150v37.8zM182.6 131.1s.1 0 0 0c.1 0 .1 0 0 0z"/><path class="st4" d="M150 187.8zM149.3 112.5c.1-.1.2-.1.3-.1-.1 0-.2 0-.3.1zM149.3 112.5l-31.4 18.1-.3.3c.1-.1.2-.2.3-.2l31.4-18.2zM149.7 112.3z"/><path d="M117.3 131.2c0-.1 0-.1 0 0-.1.2-.2.4-.3.8v36.3c0 .5.3 1 .8 1.3l31.4 18.2c.2.1.5.1.7.2v-37.9l-32.6-18.9z" opacity=".6"/><path class="st6" d="M149.6 112.4s0-.1 0 0c0-.1 0 0 0 0zM117.4 131.1c.1-.1.1-.2.2-.3-.1.1-.2.2-.2.3zM150 112.3h.4-.6.2zM150.3 112.3c.1 0 .1.1 0 0 .1.1.1 0 0 0zM150 112.3zM150 112.3z"/></svg>