<?xml version="1.0" encoding="utf-8"?>
<!-- Generator: Adobe Illustrator 21.1.0, SVG Export Plug-In . SVG Version: 6.00 Build 0)  -->
<svg version="1.1" id="Layer_1" xmlns="http://www.w3.org/2000/svg" xmlns:xlink="http://www.w3.org/1999/xlink" x="0px" y="0px"
	 viewBox="0 0 512 512" style="enable-background:new 0 0 512 512;" xml:space="preserve">
<g>
	<path d="M427.4,72.6c6.6,0,12,5.4,12,12v-12H427.4z"/>
	<path d="M315.8,246.6l70.6-70.6v0l6.9-6.9l46.1,46.1V84.6c0-6.6-5.4-12-12-12H296.9l46.1,46.1l-6.9,6.9h0l-70.6,70.6L315.8,246.6z"
		/>
	<polygon points="196.3,265.4 125.7,335.9 125.7,336 118.8,342.9 72.7,296.8 72.7,427.4 72.7,439.4 84.7,439.4 215.2,439.4 
		169.2,393.3 176.1,386.4 176.1,386.4 246.7,315.8 	"/>
	<path d="M386.4,386.4H256v53h171.4c6.6,0,12-5.4,12-12V256h-53L386.4,386.4z"/>
	<path d="M125.7,125.6H256v-53H84.7c-6.6,0-12,5.4-12,12V256h53V125.6z"/>
</g>
</svg>
